<svg xmlns="http://www.w3.org/2000/svg" viewBox="0 0 828.69 242.16"><defs><style>.cls-1{fill:#fff;}</style></defs><g id="Capa_2" data-name="Capa 2"><g id="Capa_1-2" data-name="Capa 1"><polygon class="cls-1" points="53.81 0 0 53.81 53.81 53.81 53.81 188.34 107.62 242.16 107.62 53.81 161.44 53.81 161.44 0 53.81 0"/><polygon class="cls-1" points="225.63 188.34 226.22 53.81 171.82 0 171.82 188.34 118 188.34 118 242.16 225.63 242.16 279.44 188.34 225.63 188.34"/><path class="cls-1" d="M313.15,94.72V53H298.78V44H337v9H322.53V94.72Z"/><path class="cls-1" d="M351.54,95.58q-6,0-9.58-3.27a11.56,11.56,0,0,1-3.53-8.89,11.17,11.17,0,0,1,1.83-6.36,12,12,0,0,1,5.11-4.23A18,18,0,0,1,353,71.32a23.24,23.24,0,0,1,4.69.46,16.53,16.53,0,0,1,4,1.28V70.74a6,6,0,0,0-1.76-4.69,7.49,7.49,0,0,0-5.16-1.57,16.91,16.91,0,0,0-5.57,1,25.91,25.91,0,0,0-5.8,2.89l-2.71-7.13A26.05,26.05,0,0,1,347.77,58a28.11,28.11,0,0,1,7.9-1.14q7.45,0,11.15,3.53t3.69,10.52V94.72h-8.83v-3a12.74,12.74,0,0,1-4.47,2.86A16,16,0,0,1,351.54,95.58Zm2.1-7.64a11,11,0,0,0,4.33-.88,11.74,11.74,0,0,0,3.71-2.52V80.16A15.3,15.3,0,0,0,358.22,79a17.51,17.51,0,0,0-3.78-.42,9.48,9.48,0,0,0-5.31,1.29,4.07,4.07,0,0,0-1.94,3.57,3.84,3.84,0,0,0,1.71,3.33A8.1,8.1,0,0,0,353.64,87.94Z"/><path class="cls-1" d="M381.3,94.72V46.52l9.06-4.09V94.72Z"/><path class="cls-1" d="M402,109.42V57.71h9.05v2.71a10.14,10.14,0,0,1,8.15-3.58,14.25,14.25,0,0,1,8.18,2.33,14.9,14.9,0,0,1,5.29,6.68,26.43,26.43,0,0,1,1.84,10.36,25.24,25.24,0,0,1-1.91,10.19,15.79,15.79,0,0,1-5.4,6.78,13.92,13.92,0,0,1-8.11,2.4,10.8,10.8,0,0,1-4.56-.92,9.3,9.3,0,0,1-3.48-2.73v13.4Zm15.75-22.49a6.54,6.54,0,0,0,5.68-2.81q2-2.81,2-7.91c0-3.4-.68-6-2-7.93a6.57,6.57,0,0,0-5.65-2.82,8.81,8.81,0,0,0-3.86.79,7.62,7.62,0,0,0-2.84,2.43V83.63a6.52,6.52,0,0,0,2.77,2.43A8.85,8.85,0,0,0,417.77,86.93Z"/><path class="cls-1" d="M455.83,95.58q-6.06,0-9.58-3.27a11.53,11.53,0,0,1-3.53-8.89,11.25,11.25,0,0,1,1.82-6.36,12,12,0,0,1,5.11-4.23,18.08,18.08,0,0,1,7.66-1.51,23.24,23.24,0,0,1,4.69.46,16.3,16.3,0,0,1,4,1.28V70.74a6,6,0,0,0-1.75-4.69,7.49,7.49,0,0,0-5.16-1.57,17,17,0,0,0-5.58,1,25.64,25.64,0,0,0-5.79,2.89L445,61.22a26,26,0,0,1,7.1-3.24A28.09,28.09,0,0,1,460,56.84c5,0,8.69,1.17,11.16,3.53s3.69,5.86,3.69,10.52V94.72H466v-3a12.56,12.56,0,0,1-4.47,2.86A15.9,15.9,0,0,1,455.83,95.58Zm2.09-7.64a11,11,0,0,0,4.33-.88A11.52,11.52,0,0,0,466,84.54V80.16A15.22,15.22,0,0,0,462.51,79a17.54,17.54,0,0,0-3.79-.42,9.47,9.47,0,0,0-5.3,1.29,4.07,4.07,0,0,0-1.94,3.57,3.86,3.86,0,0,0,1.7,3.33A8.15,8.15,0,0,0,457.92,87.94Z"/><path class="cls-1" d="M511.88,94.72V53H497.5V44h38.21v9H521.26V94.72Z"/><path class="cls-1" d="M553.78,95.58q-6.19,0-9.6-3.85t-3.4-10.92V57.71h9.05V78q0,4.67,1.59,6.8a5.87,5.87,0,0,0,5,2.14q3.69,0,5.45-2.15t1.75-6.65V57.71h9v37h-9V91.24a10.72,10.72,0,0,1-4.18,3.26A14.17,14.17,0,0,1,553.78,95.58Z"/><path class="cls-1" d="M584.52,94.72v-37h9.05v3.55a11.23,11.23,0,0,1,4.26-3.32,13.87,13.87,0,0,1,5.66-1.1q6.19,0,9.56,3.82t3.37,11V94.72h-9V74.44c0-3.12-.54-5.39-1.62-6.83a5.83,5.83,0,0,0-5-2.15c-2.46,0-4.28.71-5.45,2.15s-1.76,3.66-1.76,6.68V94.72Z"/><path class="cls-1" d="M628.33,94.72v-37h9.06v3.55a11.27,11.27,0,0,1,4.25-3.32,13.89,13.89,0,0,1,5.67-1.1q6.2,0,9.56,3.82t3.37,11V94.72h-9V74.44c0-3.12-.54-5.39-1.61-6.83a5.86,5.86,0,0,0-5-2.15c-2.46,0-4.28.71-5.45,2.15s-1.75,3.66-1.75,6.68V94.72Z"/><path class="cls-1" d="M687.54,95.58a17,17,0,0,1-9.18-2.39,15.66,15.66,0,0,1-5.94-6.75,23.59,23.59,0,0,1-2.08-10.27,23.24,23.24,0,0,1,2.12-10.32,15.6,15.6,0,0,1,6-6.68,17.31,17.31,0,0,1,9.11-2.33,17.62,17.62,0,0,1,8.15,1.88,13.93,13.93,0,0,1,5.83,5.78,20.1,20.1,0,0,1,2.17,9.9c0,.63,0,1.39-.05,2.3s-.11,1.82-.2,2.73H679.28a10.49,10.49,0,0,0,1.18,4.44,7.4,7.4,0,0,0,2.84,2.95,8.38,8.38,0,0,0,4.28,1.05,10.87,10.87,0,0,0,4.59-.89,11.17,11.17,0,0,0,3.7-2.84l5.21,5.4a18.49,18.49,0,0,1-5.75,4.38A17.4,17.4,0,0,1,687.54,95.58Zm-8.22-23.21h15.61a10.89,10.89,0,0,0-1.09-4.18,6.48,6.48,0,0,0-2.53-2.7,7.78,7.78,0,0,0-3.95-.94,7.93,7.93,0,0,0-5.43,2A8.43,8.43,0,0,0,679.32,72.37Z"/><path class="cls-1" d="M713,94.72V46.52l9-4.09V94.72Z"/><path class="cls-1" d="M738.31,53.07A5.38,5.38,0,0,1,733,47.75,5,5,0,0,1,734.54,44a5.45,5.45,0,0,1,7.57,0,5.32,5.32,0,0,1-3.8,9Zm-4.53,41.65v-37h9.05v37Z"/><path class="cls-1" d="M754.2,94.72v-37h9v3.55a11.38,11.38,0,0,1,4.26-3.32,13.89,13.89,0,0,1,5.67-1.1q6.2,0,9.56,3.82t3.36,11V94.72h-9V74.44c0-3.12-.54-5.39-1.61-6.83a5.86,5.86,0,0,0-5-2.15c-2.46,0-4.28.71-5.45,2.15s-1.76,3.66-1.76,6.68V94.72Z"/><path class="cls-1" d="M811.23,110.14l-5-7.57a45.53,45.53,0,0,0,8.2-1.19,7.52,7.52,0,0,0,4.07-2.28,6.08,6.08,0,0,0,1.16-3.88V92.54c-1.88,2-4.54,3-8,3a14.5,14.5,0,0,1-8.3-2.33,15,15,0,0,1-5.34-6.7,26.37,26.37,0,0,1-1.86-10.38A24.93,24.93,0,0,1,798.14,66a15.71,15.71,0,0,1,5.44-6.73,14.11,14.11,0,0,1,8.2-2.39,12.82,12.82,0,0,1,4.51.76,8.58,8.58,0,0,1,3.38,2.21v-2.1h9V91.38a32.54,32.54,0,0,1-.91,8.33,12.66,12.66,0,0,1-2.95,5.58,12.94,12.94,0,0,1-5.37,3.31A34.21,34.21,0,0,1,811.23,110.14Zm2-23.21a7.62,7.62,0,0,0,3.6-.89,8.68,8.68,0,0,0,2.88-2.41V68.72a8.29,8.29,0,0,0-6.37-3.26,7,7,0,0,0-6,2.73q-2,2.73-2,8a16.23,16.23,0,0,0,.92,5.82,7.7,7.7,0,0,0,2.7,3.67A7.1,7.1,0,0,0,813.19,86.93Z"/><path class="cls-1" d="M321.85,182.49A23.17,23.17,0,0,1,311,180.12a16,16,0,0,1-6.88-6.9,23.31,23.31,0,0,1-2.37-10.93V130.93h9.38v31.36c0,3.83.86,6.66,2.57,8.47s4.44,2.71,8.19,2.71a13.88,13.88,0,0,0,5.93-1.12,7.39,7.39,0,0,0,3.59-3.6,14.91,14.91,0,0,0,1.19-6.46V130.93H342v31.36a24.12,24.12,0,0,1-1.58,9.19,16.61,16.61,0,0,1-4.34,6.29,17.44,17.44,0,0,1-6.43,3.58A26,26,0,0,1,321.85,182.49Z"/><path class="cls-1" d="M353.64,181.62V130.93H375q6.4,0,10.17,2.33a13.46,13.46,0,0,1,5.4,6,18.26,18.26,0,0,1,1.63,7.58,17.08,17.08,0,0,1-1,5.56,15.09,15.09,0,0,1-3,5.14,14.66,14.66,0,0,1-5.32,3.77,19.76,19.76,0,0,1-7.91,1.43H363v18.9ZM363,153.88h12.45a7.37,7.37,0,0,0,4.19-1.06,6.17,6.17,0,0,0,2.26-2.7,8.42,8.42,0,0,0,.69-3.3,8.61,8.61,0,0,0-.64-3.16,6.06,6.06,0,0,0-2.19-2.78,7.29,7.29,0,0,0-4.31-1.12H363Z"/><path class="cls-1" d="M412.45,181.62l-18-50.69h10.14l11.33,33.56.53,1.58q.27.81.45,1.5c.07-.41.19-.88.34-1.43s.34-1.09.53-1.65L429,130.93h10l-17.92,50.69Z"/></g></g></svg>